<?xml version="1.0" encoding="utf-8"?>
<!-- Generator: Adobe Illustrator 16.0.0, SVG Export Plug-In . SVG Version: 6.00 Build 0)  -->
<!DOCTYPE svg PUBLIC "-//W3C//DTD SVG 1.1//EN" "http://www.w3.org/Graphics/SVG/1.1/DTD/svg11.dtd">
<svg version="1.1" id="Layer_1" xmlns="http://www.w3.org/2000/svg" xmlns:xlink="http://www.w3.org/1999/xlink" x="0px" y="0px"
	 width="295px" height="231px" viewBox="0 0 295 231" enable-background="new 0 0 295 231" xml:space="preserve">
<g>
	<g opacity="0.9">
		<path fill="#1F140F" d="M281.023,100.579c6.176,54.876-48.6,106.085-122.343,114.385c-73.742,8.298-138.529-29.457-144.705-84.331
			C7.802,75.759,62.576,24.549,136.318,16.248C210.062,7.95,274.848,45.708,281.023,100.579"/>
	</g>
	<path fill="#056635" d="M276.738,98.418c6.035,53.619-47.489,103.664-119.549,111.772c-72.061,8.108-135.371-28.786-141.402-82.407
		C9.753,74.161,63.277,24.12,135.337,16.01C207.396,7.901,270.705,44.797,276.738,98.418"/>
	<path fill="#0F9146" d="M261.807,100.099c5.344,47.484-42.055,91.8-105.869,98.979c-63.812,7.183-119.875-25.49-125.218-72.976
		s42.056-91.799,105.868-98.979C200.399,19.94,256.463,52.612,261.807,100.099"/>
	<path fill="#FFFFFF" d="M57.801,66.341h18.8l-0.745,13.336l0.413,0.081c3.698-9.553,11.979-14.326,24.846-14.326
		c18.716,0,28.074,8.723,28.074,26.17v53.91h-18.965v-47.7v-2.982l-0.414-5.548c-0.886-5.905-5.523-8.861-13.913-8.861
		c-12.754,0-19.13,6.045-19.13,18.138v46.954H57.801V66.341z"/>
	<path fill="#FFFFFF" d="M205.345,88.123h-18.552c-0.11-0.663-0.193-1.161-0.248-1.49c-0.387-3.812-1.478-6.184-3.271-7.123
		c-1.794-0.938-6.144-1.408-13.044-1.408c-9.882,0-14.823,3.203-14.823,9.606c0,4.362,0.869,6.955,2.607,7.783
		c1.74,0.829,7.633,1.493,17.682,1.988c13.526,0.664,22.331,2.457,26.418,5.383c4.084,2.928,6.127,8.917,6.127,17.972
		c0,9.662-2.719,16.354-8.156,20.082c-5.439,3.729-15.196,5.59-29.275,5.59c-13.528,0-22.774-1.683-27.744-5.051
		c-4.968-3.367-7.453-9.662-7.453-18.883v-1.988h19.709c-0.276,1.106-0.441,1.988-0.496,2.65
		c-0.774,7.013,4.638,10.518,16.23,10.518c11.981,0,17.972-3.478,17.972-10.434c0-6.681-3.755-10.021-11.263-10.021
		c-16.949,0-28.116-1.601-33.499-4.803c-5.383-3.202-8.074-9.855-8.074-19.957c0-9.057,2.455-15.184,7.37-18.387
		c4.913-3.201,14.354-4.803,28.322-4.803c13.195,0,22.071,1.546,26.625,4.637C203.066,73.078,205.345,79.124,205.345,88.123"/>
	<rect x="214.668" y="66.343" fill="#FFFFFF" width="18.965" height="79.169"/>
	<polygon fill="#FFFFFF" points="56.652,164.462 56.652,153.246 58.244,153.246 58.244,157.976 63.58,157.976 63.58,153.246 
		65.17,153.246 65.17,164.462 63.58,164.462 63.58,159.166 58.244,159.166 58.244,164.462 	"/>
	<polygon fill="#FFFFFF" points="67.049,164.462 67.049,153.246 73.316,153.246 73.316,154.436 68.64,154.436 68.64,158.035 
		72.558,158.035 72.558,159.21 68.64,159.21 68.64,163.272 73.642,163.272 73.642,164.462 	"/>
	<path fill="#FFFFFF" d="M81.816,164.462l-1.218-3.107h-4.753l-1.235,3.107h-1.479l4.448-11.216h1.578l4.378,11.216H81.816z
		 M80.135,160.173l-1.911-4.834l-1.917,4.834H80.135z"/>
	<polygon fill="#FFFFFF" points="84.15,164.462 84.15,153.246 85.739,153.246 85.739,163.272 90.788,163.272 90.788,164.462 	"/>
	<polygon fill="#FFFFFF" points="93.833,164.462 93.833,154.436 90.081,154.436 90.081,153.246 99.175,153.246 99.175,154.436 
		95.424,154.436 95.424,164.462 	"/>
	<polygon fill="#FFFFFF" points="99.726,164.462 99.726,153.246 101.317,153.246 101.317,157.976 106.653,157.976 106.653,153.246 
		108.243,153.246 108.243,164.462 106.653,164.462 106.653,159.166 101.317,159.166 101.317,164.462 	"/>
	<polygon fill="#FFFFFF" points="112.546,164.462 112.546,159.777 108.802,153.246 110.623,153.246 113.532,158.31 116.669,153.246 
		118.146,153.246 114.137,159.747 114.137,164.462 	"/>
	<polygon fill="#FFFFFF" points="122.684,164.462 122.684,153.246 128.95,153.246 128.95,154.436 124.273,154.436 124.273,158.193 
		128.199,158.193 128.199,159.369 124.273,159.369 124.273,164.462 	"/>
	<path fill="#FFFFFF" d="M134.511,164.741c-1.556,0-2.807-0.54-3.754-1.616c-0.947-1.08-1.42-2.507-1.42-4.278
		c0-1.784,0.476-3.209,1.428-4.277c0.952-1.067,2.223-1.604,3.815-1.604c1.586,0,2.856,0.533,3.811,1.602
		c0.956,1.064,1.433,2.486,1.433,4.266c0,1.813-0.478,3.252-1.433,4.316C137.437,164.209,136.144,164.741,134.511,164.741
		 M134.534,163.553c1.146,0,2.034-0.412,2.66-1.24c0.625-0.825,0.94-1.991,0.94-3.496c0-1.458-0.316-2.604-0.944-3.425
		c-0.629-0.822-1.5-1.235-2.61-1.235c-1.117,0-1.988,0.413-2.615,1.237c-0.626,0.827-0.939,1.975-0.939,3.447
		c0,1.463,0.311,2.614,0.932,3.457C132.579,163.135,133.438,163.553,134.534,163.553"/>
	<path fill="#FFFFFF" d="M145.558,164.741c-1.556,0-2.807-0.54-3.754-1.616c-0.948-1.08-1.421-2.507-1.421-4.278
		c0-1.784,0.476-3.209,1.43-4.277c0.95-1.067,2.222-1.604,3.814-1.604c1.586,0,2.857,0.533,3.811,1.602
		c0.956,1.064,1.433,2.486,1.433,4.266c0,1.813-0.477,3.252-1.433,4.316C148.483,164.209,147.19,164.741,145.558,164.741
		 M145.581,163.553c1.146,0,2.033-0.412,2.66-1.24c0.626-0.825,0.939-1.991,0.939-3.496c0-1.458-0.314-2.604-0.943-3.425
		c-0.629-0.822-1.499-1.235-2.61-1.235c-1.117,0-1.988,0.413-2.615,1.237c-0.625,0.827-0.939,1.975-0.939,3.447
		c0,1.463,0.311,2.614,0.933,3.457C143.625,163.135,144.483,163.553,145.581,163.553"/>
	<path fill="#FFFFFF" d="M152.089,164.462v-11.216h3.728c1.112,0,2.009,0.124,2.694,0.372c0.683,0.247,1.276,0.667,1.776,1.258
		c0.794,0.938,1.189,2.178,1.189,3.713c0,1.864-0.492,3.308-1.477,4.336c-0.985,1.026-2.372,1.537-4.159,1.537H152.089z
		 M153.681,163.271h2.038c1.456,0,2.486-0.393,3.092-1.175c0.652-0.833,0.977-1.95,0.977-3.355c0-1.318-0.321-2.355-0.961-3.108
		c-0.391-0.459-0.854-0.772-1.395-0.942c-0.54-0.169-1.354-0.255-2.441-0.255h-1.31V163.271z"/>
	<path fill="#FFFFFF" d="M171.41,164.743c-1.742,0-3.09-0.513-4.039-1.535c-0.95-1.022-1.425-2.473-1.425-4.348
		c0-1.867,0.485-3.317,1.452-4.35c0.967-1.028,2.329-1.546,4.088-1.546c1.005,0,2.183,0.164,3.531,0.495v1.491
		c-1.537-0.53-2.72-0.795-3.553-0.795c-1.217,0-2.16,0.412-2.827,1.235c-0.667,0.821-1,1.985-1,3.484
		c0,1.43,0.354,2.558,1.069,3.384c0.711,0.826,1.684,1.24,2.917,1.24c1.061,0,2.196-0.327,3.41-0.978v1.363
		C173.926,164.456,172.717,164.743,171.41,164.743"/>
	<path fill="#FFFFFF" d="M183.624,164.462l-1.22-3.107h-4.752l-1.234,3.107h-1.478l4.447-11.216h1.578l4.379,11.216H183.624z
		 M181.941,160.173l-1.909-4.834l-1.917,4.834H181.941z"/>
	<polygon fill="#FFFFFF" points="187.396,164.462 187.396,154.436 183.645,154.436 183.645,153.246 192.738,153.246 
		192.738,154.436 188.986,154.436 188.986,164.462 	"/>
	<polygon fill="#FFFFFF" points="193.291,164.462 193.291,153.246 199.558,153.246 199.558,154.436 194.882,154.436 
		194.882,158.035 198.8,158.035 198.8,159.21 194.882,159.21 194.882,163.272 199.883,163.272 199.883,164.462 	"/>
	<path fill="#FFFFFF" d="M200.693,164.462v-11.216h3.396c1.073,0,1.899,0.238,2.473,0.714c0.572,0.476,0.859,1.164,0.859,2.067
		c0,1.495-0.755,2.557-2.266,3.183l3.742,5.252h-1.955l-3.188-4.743h-1.485v4.743H200.693z M202.27,158.527h0.516
		c2,0,3-0.783,3-2.355c0-1.156-0.838-1.736-2.516-1.736h-1V158.527z"/>
	<rect x="209.49" y="153.246" fill="#FFFFFF" width="1.59" height="11.216"/>
	<polygon fill="#FFFFFF" points="212.959,164.462 212.959,153.246 214.52,153.246 220.166,161.906 220.166,153.246 221.529,153.246 
		221.529,164.462 219.976,164.462 214.322,155.802 214.322,164.462 	"/>
	<path fill="#FFFFFF" d="M231.842,164.158c-1.359,0.389-2.543,0.585-3.555,0.585c-1.783,0-3.152-0.508-4.103-1.524
		c-0.952-1.016-1.429-2.472-1.429-4.362c0-1.861,0.483-3.307,1.447-4.34c0.965-1.034,2.319-1.552,4.062-1.552
		c1.144,0,2.329,0.172,3.562,0.511v1.47c-1.546-0.526-2.729-0.789-3.553-0.789c-1.213,0-2.154,0.412-2.823,1.235
		c-0.669,0.821-1.005,1.982-1.005,3.479c0,1.479,0.359,2.63,1.077,3.451c0.717,0.822,1.723,1.231,3.016,1.231
		c0.53,0,1.104-0.095,1.72-0.281v-3.652h1.584V164.158z"/>
</g>
</svg>
